<svg xmlns="http://www.w3.org/2000/svg" width="38" height="38" viewBox="0 0 38 38">
  <defs>
    <style>
      .cls-1 {
        fill: #1f58a3;
      }

      .cls-2 {
        fill: #fff;
      }
    </style>
  </defs>
  <g id="Google" transform="translate(-0.27 0.333)">
    <circle id="Ellipse_56" data-name="Ellipse 56" class="cls-1" cx="19" cy="19" r="19" transform="translate(0.27 -0.333)"/>
    <path id="Union_31" data-name="Union 31" class="cls-2" d="M4.134,11.963a6.289,6.289,0,0,1-4-6c.051-3.1,2.9-6.1,6-6,1.485-.069,2.864,1.092,4,2-.485.552-1.463.5-2,1a3,3,0,0,0-4,0,3.848,3.848,0,0,0,0,6c1.829,1.661,4.495.544,5-2-.5-.008-.919,0-1.326,0-.524.008-1.03.016-1.675,0,0-.684,0-1.316,0-2,1.915-.005,4.082-.014,6,0a7.844,7.844,0,0,1-1,5A6.114,6.114,0,0,1,6.2,12.33,5.748,5.748,0,0,1,4.134,11.963Zm12-3c-.006-.572.005-1.428,0-2-.279,0-.625,0-.973,0-.366,0-.735,0-1.028,0v-2c.317,0,.722,0,1.118,0,.316,0,.627,0,.883,0,0-.575-.006-.428,0-1h2c0,.572-.006.428,0,1,.292,0,.4,0,.508,0s.213,0,.492,0v2c-.293,0-.4,0-.508,0s-.213,0-.492,0c-.006.575,0,1.428,0,2Z" transform="translate(9.137 13.704)"/>
  </g>
</svg>
