<svg xmlns="http://www.w3.org/2000/svg" width="38" height="38" viewBox="0 0 38 38">
  <defs>
    <style>
      .cls-1 {
        fill: #1f58a3;
      }

      .cls-2 {
        fill: #fff;
      }
    </style>
  </defs>
  <g id="Instagram" transform="translate(-0.067 0.333)">
    <circle id="Ellipse_57" data-name="Ellipse 57" class="cls-1" cx="19" cy="19" r="19" transform="translate(0.067 -0.333)"/>
    <path id="Union_32" data-name="Union 32" class="cls-2" d="M11.408,16.008h-7a3.563,3.563,0,0,1-2.985-1.515A5.947,5.947,0,0,1,.408,11.008v-6A5.947,5.947,0,0,1,1.423,1.523,3.563,3.563,0,0,1,4.408.008h7a5.2,5.2,0,0,1,5,5v6A5.2,5.2,0,0,1,11.408,16.008Zm-3-12c-2.312,0-5,1.747-5,4s2.688,4,5,4a3.912,3.912,0,0,0,4-4A3.912,3.912,0,0,0,8.408,4.009Zm4-1a1,1,0,1,0,1,1A1,1,0,0,0,12.408,3.008Zm-4,8a3.4,3.4,0,0,1-3-3,3.4,3.4,0,0,1,3-3c1.374,0,2,1.555,2,3S9.782,11.008,8.408,11.008Z" transform="translate(10.659 10.659)"/>
  </g>
</svg>
