<svg xmlns="http://www.w3.org/2000/svg" width="38" height="38" viewBox="0 0 38 38">
  <defs>
    <style>
      .cls-1 {
        fill: #1f58a3;
      }

      .cls-2 {
        fill: #fff;
        fill-rule: evenodd;
      }
    </style>
  </defs>
  <g id="Twitter" transform="translate(0.003 0.333)">
    <circle id="Ellipse_58" data-name="Ellipse 58" class="cls-1" cx="19" cy="19" r="19" transform="translate(-0.003 -0.333)"/>
    <path id="Fill-1" class="cls-2" d="M34.338,21.485a5.468,5.468,0,0,1-2,1h0a4.664,4.664,0,0,0-3-1,2.729,2.729,0,0,0-3,3,5.878,5.878,0,0,0,0,1h0a9.809,9.809,0,0,1-7-4,4.029,4.029,0,0,0,1,5,4.693,4.693,0,0,1-2-1,4.345,4.345,0,0,0,3,4c-.407.219-.687.047-1,0,.11,1.017,1.443,2,3,2a6.153,6.153,0,0,1-5,2c1.591.968,3.037,1,5,1a9.788,9.788,0,0,0,10-10c0-.006,0,.007,0,0s0,.015,0,0,0,.017,0,0c.508-.347.513-1.191,1-2-.282.156-.212.923-1,1,.506-.273.815-1.289,1-2" transform="translate(-7.341 -8.818)"/>
  </g>
</svg>
